<?xml version="1.0" encoding="UTF-8" standalone="no" ?>
<!DOCTYPE svg PUBLIC "-//W3C//DTD SVG 1.1//EN" "http://www.w3.org/Graphics/SVG/1.1/DTD/svg11.dtd">
<svg xmlns="http://www.w3.org/2000/svg" xmlns:xlink="http://www.w3.org/1999/xlink" version="1.1" width="300" height="150" viewBox="0 0 300 150" xml:space="preserve">
<desc>Created with Fabric.js 5.2.4</desc>
<defs>
</defs>
<g transform="matrix(1 0 0 1 150 75)" id="55e34e8b-8436-4ffc-909d-214ce6a20066"  >
<rect style="stroke: none; stroke-width: 1; stroke-dasharray: none; stroke-linecap: butt; stroke-dashoffset: 0; stroke-linejoin: miter; stroke-miterlimit: 4; fill: rgb(255,255,255); fill-rule: nonzero; opacity: 1; visibility: hidden;" vector-effect="non-scaling-stroke"  x="-150" y="-75" rx="0" ry="0" width="300" height="150" />
</g>
<g transform="matrix(Infinity NaN NaN Infinity 0 0)" id="75af11ec-e18c-411b-9b69-1d640c065b12"  >
</g>
<g transform="matrix(1.18 0 0 1.18 150 75)" id="243d7c3e-4385-4837-9607-c422fc58c047"  >
<path style="stroke: rgb(0,0,0); stroke-width: 0; stroke-dasharray: none; stroke-linecap: butt; stroke-dashoffset: 0; stroke-linejoin: miter; stroke-miterlimit: 4; fill: rgb(224,221,230); fill-rule: nonzero; opacity: 1;" vector-effect="non-scaling-stroke"  transform=" translate(-60.55, -16.52)" d="M 16.715 7.932 C 16.647 7.8420000000000005 16.409 7.672000000000001 16.001 7.422000000000001 C 15.593000000000004 7.172000000000001 15.083000000000002 6.912000000000001 14.471000000000002 6.640000000000001 C 13.859000000000002 6.368 13.190000000000001 6.130000000000001 12.465000000000002 5.926 C 11.75718152342857 5.724457918476376 11.02495108004537 5.621488012375612 10.288999999999998 5.619999999999999 C 8.294 5.62 7.2970000000000015 6.289 7.2970000000000015 7.6259999999999994 C 7.2970000000000015 8.033999999999999 7.404000000000002 8.373999999999999 7.620000000000002 8.645999999999999 C 7.835000000000002 8.918 8.152000000000001 9.161999999999999 8.572000000000003 9.376999999999999 C 8.991000000000003 9.591999999999999 9.518000000000002 9.790999999999999 10.152000000000003 9.972 L 11.558000000000003 10.365 L 12.363000000000003 10.584 C 13.519000000000004 10.901 14.561000000000003 11.247 15.491000000000003 11.620999999999999 C 16.42 11.995 17.208000000000002 12.459999999999999 17.854000000000003 13.014999999999999 C 18.498459448553593 13.568246457788272 19.00981750602378 14.259742012776364 19.35 15.037999999999998 C 19.700000000000003 15.830999999999998 19.877000000000002 16.782999999999998 19.877000000000002 17.894 C 19.877000000000002 19.253999999999998 19.622000000000003 20.403999999999996 19.112000000000002 21.345 C 18.602 22.285 17.927000000000003 23.044999999999998 17.089000000000002 23.622999999999998 C 16.249000000000002 24.200999999999997 15.287000000000003 24.619999999999997 14.199000000000002 24.880999999999997 C 13.111 25.141 11.989 25.272 10.833000000000002 25.272 C 8.991212087419578 25.26153899864785 7.16001086589125 24.992581319235878 5.392999999999999 24.473 C 4.509000000000001 24.212999999999997 3.6530000000000014 23.901 2.8260000000000014 23.538 C 2.0239531221207856 23.18946302407838 1.255425759911711 22.76837965227567 0.5299999999999994 22.28 L 2.9779999999999998 17.418 C 3.0679999999999996 17.531 3.3629999999999995 17.747 3.8619999999999997 18.064 C 4.359999999999999 18.381 4.978 18.699 5.715 19.016 C 6.451 19.333 7.273 19.616 8.18 19.866 C 9.086 20.116 10.004 20.24 10.934 20.24 C 12.905999999999999 20.24 13.892 19.639999999999997 13.892 18.438 C 13.892 17.985 13.744 17.610999999999997 13.45 17.316 C 13.155 17.020999999999997 12.747 16.755 12.225999999999999 16.517 C 11.737226834191487 16.298194531952113 11.234850864200736 16.111139649508743 10.72199999999999 15.956999999999995 L 9.02 15.462 L 8.044 15.174 C 6.933000000000001 14.834 5.970000000000001 14.466 5.154 14.068999999999999 C 4.338 13.671999999999999 3.6639999999999997 13.213 3.131 12.691999999999998 C 2.6078830353245044 12.18512375862061 2.2017569616934902 11.57013284712222 1.9409999999999994 10.89 C 1.6799999999999997 10.209999999999999 1.5499999999999998 9.416999999999998 1.5499999999999998 8.509999999999998 C 1.5499999999999998 7.239999999999998 1.7879999999999998 6.118999999999998 2.264 5.143999999999998 C 2.722894023697543 4.191075776626241 3.3842928571038806 3.3498228744866005 4.201999999999998 2.6789999999999985 C 5.042506449169463 1.997206126160755 6.006366169484471 1.4835323829988658 7.041000000000002 1.1659999999999986 C 8.117 0.8259999999999985 9.256 0.6559999999999986 10.458 0.6559999999999986 C 11.296 0.6559999999999986 12.124 0.7359999999999985 12.940000000000001 0.8939999999999986 C 13.756000000000002 1.0529999999999986 14.538000000000002 1.2569999999999986 15.286000000000001 1.5059999999999985 C 16.034000000000002 1.7559999999999985 16.731 2.0389999999999984 17.376 2.3559999999999985 C 18.023 2.6729999999999987 18.618000000000002 2.9909999999999988 19.162000000000003 3.3079999999999985 L 16.714000000000002 7.931999999999999 z M 40.139 25 L 34.699000000000005 25 L 34.699000000000005 14.97 C 34.699000000000005 13.814 34.47200000000001 12.964 34.019000000000005 12.420000000000002 C 33.565000000000005 11.876000000000001 32.94200000000001 11.604000000000001 32.14900000000001 11.604000000000001 C 31.831000000000007 11.604000000000001 31.486000000000008 11.678 31.11200000000001 11.825000000000001 C 30.71860534793719 11.983778303089887 30.35172207283391 12.201615247682458 30.024000000000008 12.471 C 29.66166004222151 12.76527452960395 29.335992467487166 13.102021516674618 29.05400000000001 13.474000000000004 C 28.756963835495046 13.863792412060409 28.527133790991677 14.30046949661681 28.37400000000001 14.766000000000004 L 28.37400000000001 25 L 22.934000000000008 25 L 22.934000000000008 0.18 L 28.37400000000001 0.18 L 28.37400000000001 10.142 C 29.004744401645496 9.10198942356334 29.90342605153161 8.250624985834953 30.976000000000006 7.677000000000001 C 32.05200000000001 7.098999999999999 33.23600000000001 6.81 34.52900000000001 6.81 C 35.73000000000001 6.81 36.69900000000001 7.02 37.43600000000001 7.439 C 38.172000000000004 7.859 38.739000000000004 8.391 39.13600000000001 9.037 C 39.53200000000001 9.683000000000002 39.79900000000001 10.408000000000001 39.93500000000001 11.213000000000001 C 40.07100000000001 12.018 40.13900000000001 12.805000000000001 40.13900000000001 13.576 L 40.13900000000001 25 z M 52.479 25.34 C 50.96 25.34 49.606 25.09 48.416 24.592 C 47.226 24.093 46.223 23.418999999999997 45.406 22.569 C 44.59163201293765 21.72099593028739 43.96113550204127 20.71397180543236 43.554 19.610999999999997 C 43.13369586691633 18.485538029528243 42.920265471417785 17.293376820386364 42.924 16.092000000000002 C 42.924 14.867999999999999 43.134 13.694999999999999 43.554 12.572999999999999 C 43.961431600452734 11.46994280825132 44.59227264494431 10.462912150072112 45.407000000000004 9.614999999999998 C 46.223000000000006 8.764999999999999 47.226000000000006 8.084999999999999 48.416000000000004 7.574999999999998 C 49.606 7.064999999999998 50.96 6.809999999999999 52.479000000000006 6.809999999999999 C 53.998000000000005 6.809999999999999 55.346000000000004 7.064999999999999 56.525000000000006 7.574999999999998 C 57.70400000000001 8.084999999999999 58.70100000000001 8.764999999999999 59.517 9.614999999999998 C 60.33307170347293 10.465087222678381 60.96911205395024 11.471187413433402 61.387 12.572999999999993 C 61.81786311576714 13.696023687024741 62.03689403887895 14.889165820818004 62.033 16.092 C 62.03673452858222 17.293376820386364 61.823304133083674 18.485538029528243 61.403 19.610999999999997 C 60.995864497958735 20.71397180543236 60.36536798706235 21.720995930287387 59.551 22.568999999999996 C 58.735 23.418999999999997 57.731 24.092999999999996 56.541000000000004 24.591999999999995 C 55.351000000000006 25.090999999999994 53.998000000000005 25.339999999999996 52.479000000000006 25.339999999999996 z M 48.5 16.092 C 48.5 17.497 48.874 18.625 49.622 19.474999999999998 C 50.37 20.325 51.322 20.749999999999996 52.478 20.749999999999996 C 53.01827643468541 20.7558044351178 53.552894759919944 20.639583060066812 54.042 20.409999999999997 C 54.518 20.182999999999996 54.932 19.865999999999996 55.282000000000004 19.458 C 55.64994798812679 19.02142596343198 55.93282955623133 18.51976908186529 56.11600000000001 17.979 C 56.32478432292996 17.372032856496812 56.42827479768699 16.733841595495118 56.422000000000004 16.092 C 56.422000000000004 14.687 56.048 13.559 55.300000000000004 12.709 C 54.55200000000001 11.859 53.611000000000004 11.434 52.478 11.434 C 51.38721831240355 11.425222270669629 50.34808596351827 11.897954311078001 49.638000000000005 12.725999999999999 C 49.27076431083399 13.162734635607103 48.98856684368527 13.664381335021707 48.806000000000004 14.204999999999998 C 48.597215677070054 14.811967143503182 48.49372520231303 15.450158404504876 48.50000000000001 16.091999999999995 z M 76.276 11.808 C 74.961 11.831 73.771 12.046 72.706 12.454 C 71.641 12.862 70.87 13.474 70.394 14.290000000000001 L 70.394 25 L 64.95400000000001 25 L 64.95400000000001 7.15 L 69.95200000000001 7.15 L 69.95200000000001 10.754000000000001 C 70.56400000000001 9.553 71.35200000000002 8.612000000000002 72.31500000000001 7.932000000000001 C 73.278 7.252000000000002 74.30400000000002 6.901000000000002 75.39200000000001 6.878000000000001 L 75.936 6.878000000000001 C 76.049 6.878000000000001 76.16300000000001 6.889000000000001 76.27600000000001 6.912000000000001 L 76.27600000000001 11.808 z M 90.35 24.048000000000002 C 89.51361416636692 24.395933268976513 88.65627152144798 24.691177093716817 87.78299999999999 24.932000000000002 C 86.82 25.204 85.85099999999998 25.340000000000003 84.87599999999999 25.340000000000003 C 84.19599999999998 25.340000000000003 83.556 25.255000000000003 82.95599999999999 25.085000000000004 C 82.37737199765745 24.92670933981887 81.83841683241023 24.648714766594004 81.374 24.269000000000005 C 80.92099999999999 23.895000000000007 80.564 23.402000000000005 80.304 22.790000000000006 C 80.042 22.178000000000008 79.912 21.441000000000006 79.912 20.580000000000005 L 79.912 11.264000000000005 L 77.634 11.264000000000005 L 77.634 7.15 L 79.912 7.15 L 79.912 1.472 L 85.352 1.472 L 85.352 7.15 L 88.99000000000001 7.15 L 88.99000000000001 11.264 L 85.352 11.264 L 85.352 18.71 C 85.352 19.3 85.49900000000001 19.724 85.794 19.985 C 86.089 20.245 86.463 20.375999999999998 86.916 20.375999999999998 C 87.324 20.375999999999998 87.743 20.307999999999996 88.17399999999999 20.171999999999997 C 88.604 20.035999999999998 88.979 19.888999999999996 89.29599999999999 19.729999999999997 L 90.35 24.047999999999995 z M 92.627 0.18 L 98.067 0.18 L 98.067 18.642 C 98.067 20.002 98.645 20.682 99.80099999999999 20.682 C 100.073 20.682 100.37299999999999 20.642 100.70199999999998 20.563 C 101.03099999999998 20.483 101.33199999999998 20.365 101.60299999999998 20.206 L 102.31699999999998 24.286 C 101.63699999999997 24.603 100.85499999999998 24.853 99.97099999999998 25.034000000000002 C 99.08699999999997 25.215000000000003 98.25999999999998 25.306 97.48899999999998 25.306 C 95.92499999999998 25.306 94.72399999999998 24.898 93.88499999999998 24.082 C 93.04599999999998 23.266000000000002 92.62699999999998 22.087 92.62699999999998 20.546 L 92.62699999999998 0.18 z M 104.083 27.686 C 104.53699999999999 27.845 104.962 27.958 105.358 28.026 C 105.71150447646481 28.08999894345097 106.06976996075281 28.12411946576411 106.429 28.128 C 107.087 28.128 107.59700000000001 27.901 107.959 27.448 C 108.322 26.995 108.651 26.178 108.94500000000001 25 L 102.14500000000001 7.149999999999999 L 107.75500000000001 7.149999999999999 L 111.903 20.342 L 115.473 7.149999999999999 L 120.573 7.149999999999999 L 113.773 27.889999999999997 C 113.32400938670015 29.325391082875143 112.43117405366259 30.581312784681305 111.223 31.476999999999997 C 109.999 32.394999999999996 108.54899999999999 32.854 106.871 32.854 C 106.40946269836698 32.8532991294725 105.94881477994136 32.81349005010238 105.494 32.735 C 105.01240182688286 32.65083537166127 104.54016459004947 32.51988164144719 104.084 32.344 L 104.084 27.686 z" stroke-linecap="round" />
</g>
</svg>